
<svg xmlns="http://www.w3.org/2000/svg" viewBox="0 0 640 780"><style>.st1{fill:#5e9aaa}.st2{fill:#419a7d}.st3{fill:#7aaca0}</style><path d="M642.5 239v-3.8L529 178.6l55.7-129 .4-.3c.7-.5.9-1.3.6-2.1-.3-.6-.8-1-1.5-1-.2-.1-.3-.1-.5-.1l-449-10h-.2c-.3 0-.5.1-.8.3-.3.2-.5.5-.6.8V37.8l25 110.4c.2.7.8 1.2 1.5 1.3.7.1 1.4-.3 1.7-1l.9-2.1.3.4-5.6 105.5-24 6.9-17.1-10.2c-.6-.4-1.5-.3-2 .2-.1.1-.2.2-.2.3l-.4-2.1c-.1-.6-.5-1.1-1.1-1.3-.6-.2-1.2-.1-1.7.3L90 264.5l8.4-24.1c.3-.8-.1-1.7-.8-2.1-.7-.4-1.6-.2-2.1.5l-23.2 30.9-3.5-1.6c-.6-.3-1.4-.2-1.9.3s-.6 1.2-.4 1.9l9.6 23.1.8 1.8c-.5.3-.9.8-.9 1.5 0 1.2-.5 104.9-.5 127.2l-2.2 6.1c-8 8.3-34 33-52 49.8-.5.4-.6 1.1-.5 1.7l74.4 261.1c.2.8 1 1.3 1.8 1.2.8-.1 1.5-.8 1.5-1.6L113.2 463c0-.5-.1-.9-.5-1.3-.3-.3-.8-.5-1.2-.5H99.6l39.8-16.8c0 .5.2.9.6 1.2.4.4 1 .5 1.6.3L277 405l.8.2c.4.1.8.1 1.1-.1l4.8-2.1 57.9-17.6c0 .1 0 .2.1.3.2.6.8 1.1 1.5 1.2l54.4 4.8c.8.1 1.6-.5 1.8-1.3.2-.8-.2-1.6-.9-2L361.6 372l39.7-33.5 71.7 74.4c.1.1.2.2.3.2l22.2 14.5.5 20.9-13.6.8-5.9-29.5c-.1-.5-.4-.9-.9-1.2l-74.4-38.3c-.7-.4-1.6-.2-2.1.5-.5.6-.5 1.6.1 2.2l78.9 87.5-9.4 230.5c0 .9.7 1.7 1.6 1.8L642.5 713v-3.4L472 699.4l9.2-225.4 15.8 17.5-.8.8c-.4.4-.6 1.1-.4 1.7.2.6.6 1 1.2 1.2l145.6 33.5v-3.5l-141.9-32.6 32.8-33.4c.5-.5.6-1.1.4-1.7-.2-.6-.7-1-1.4-1.1l-33.1-4.4v-.1l30.7-1.7c.7 0 1.3-.5 1.5-1.3.2-.7-.1-1.5-.7-1.9l-32.2-21.1-2.8-110.9 146.6 55.2v-3.6l-146.7-55.3-1.3-52.5v-.3l33.2-76.8L642.5 239zM478.7 451.1l-.6 14.4-70.3-78 65.5 33.7 5.8 28.9c-.3.3-.4.6-.4 1zm50 8.1L500.3 488l-.8-32.7 29.2 3.9zm-3.9-12.3l-25.5 1.4-.5-18.5 26 17.1zm-27.9 39.5l-15.6-17.3.7-16.1 14.1 1.9.8 31.5zM260 378.8l-3.5-11.6 9.6-7.4 14.1 4.5-19.2 10.2c-.6.3-.9.9-.9 1.5l-.1 2.8zm-130.5 29.5l-5.5-12.8 2.6-5 19.4-17.6-2.1 21-.4 4.8-4.2 5.9-9.8 3.7zm6.2 1.3l-3.5 4.9-1.3-3.1 4.8-1.8zm-31.7 8.5l-13.4 5.1 18.2-16.5-4.8 11.4zm3.3 2.4l-3 5.8 2.3-5.6.7-.2zM81.9 298l36.3-2.6 1.3 7.3-16.2 44.7L81.9 298zm19.6 54l-22.6 62.4c.1-29.1.4-96.2.5-113.6l22.1 51.2zm51.9-76.6l-1.1 1.7-10.2-2.4 11.3.7zm-11-4.1l.6-1.6 3.6 1.8-4.2-.2zm17.7 21.1l6.9-.5 24.6 26.9-4.5 2.3-31.1-13.9.7-6.6 3.4-8.2zm-2.2-3.4l.4-4 1.2.2-1.6 3.8zm196-134l-13.9-.7c8.1-19.4 14.8-35.4 19-45.3l-5.1 46zm3 3.6l11.1.6-14.1 27.2 3-27.8zm-13.6 92.6l.5 2.8-.5-.2c-.6-.2-1.4-.1-1.8.4l-20.1 21.4-33.5 2.8c.6-1.6 1.3-3.1 2-4.7l53.9-26.8-.4 3.8c-.1.2-.1.4-.1.5zm-44.2 29.7l18.8-1.6-2.4 2.6-16.4-1zm13.4 4.2l-14 14.9-9-16.3 23 1.4zm-50.3 73.4l-6.7 5.2-.6-1.9c1.1-1.2 2.4-2.6 3.9-4.3l3.4 1zm-.9-3.8c4.1-4.6 9.5-10.7 16.1-18.2 10.5-11.9 21-23.9 24.4-27.8l11.5 10.5-47.9 36.8-4.1-1.3zm-6.1 1.7c0-.1 0-.1 0 0 .1-.1 0-.1 0 0zm-1.9-4.3l-1.5-.5-15.4-51.2 34.4-17.1 4.9-.4 6.6.4c-12.5 29.5-23.1 54.9-29 68.8zm-10.1 21l-13-17.1-.1-.1-6.3-6.9 3.3-1.7 14.2 4.6 5.3 18.8-3.4 2.4zm4.3 1l2.1 7.5-4.4-5.8 2.3-1.7zM215.6 340l-3.8-4.1 16 7.2-1.1.6-11.1-3.7zm6.9 5.8l-1.1.6-1.2-1.3 2.3.7zM149.9 385c.2.7.8 1.3 1.6 1.3h.8l-4.9 6.9 2.4-23.8 38.3-34.8 1 .3-32.1 44.9-6.1 3.2c-.8.5-1.1 1.2-1 2zm-31.3-1.9l-9.2-21.2 22.5-61.9 3.8 1.7-7.6 11.5c-.3.4-.4 1-.2 1.5s.6.9 1.1 1.1l15.6 5-26 62.3zm.5 9.7l-1.4 1.3.9-2.3.5 1zm35.8-108.2l-.5 4.8-6.7.5 3.8-5.8 3.4.5zm-1.2-3.6l.7.1-.7-.1zm153.4-105.2l2.4 12.9c.1.5.4.9.8 1.1l8.9 5.3c-1.7 4-3.4 8-5.1 12.1l-1 .3-16-17.8 10-13.9zm-.3-19.8l10 .5-7.8 10.9-2.2-11.4zm8.8 59.2l-1.5.9c.2-.6.5-1.2.7-1.7l.8.8zm-83.2 126.1l-21.4-9.6 10.7-24 6.4-3.2 12.2 43.3-8.9-2.9 1.2-.6c.6-.3.9-.9.9-1.6-.2-.5-.5-1.1-1.1-1.4zm-24.6-10.9l-1.8-.8-5-5.5 2.3-3.2 3.4-3.1 9.8-6.9-8.7 19.5zm1.3 7.5l-.8-.3.2-.4.6.7zm-11.8-8.6l6.8 3 1.9 2.1-.9 2.1-10.6-3.4 2.8-3.8zm-.1-9.4l4.2-2.1-.6.8-2.6 2.4-1-1.1zm25.1-25.5h1.5l-4.6 10.4-1.7 1.2-5.5 2.7 10.3-14.3zm-.8-4.7l-11-1.4 12.6-1v.1l-1.6 2.3zm.1-52.3l3.8 8.4-5 1.2-2.6-8.5 3.8-1.1zm-4.8-2.1l-8.1-27 11.6 26-3.5 1zm8.1 1.2l3.7-1.1.3 10.1-4-9zm3.2 12.2c.3-.1.6-.3.9-.5l.9 28.5h-.6l-7.9-26.4 6.7-1.6zm1.9 42.1l-.8-.1.5-1 .3 1.1zm-2.8-9.2l-1.4 2h-.2l-1.1-3.9 2.1.1.6 1.8zm-.6 17.9l-2 1.4 1.5-3.3.5 1.9zm2.1-5.1h2.4l.5 1.6-2 1.4-.9-3zm1.3-124.3l24.2 54.4-22.4 6.5-1.8-60.9zm25.6 57.5l4 8.9-26.4 36.9-1.2-39 23.6-6.8zm6.2 5.7l-3-6.6 9.7-2.8-6.7 9.4zm6.9-3.9l-3.8 10.1-1.5-2.7 5.3-7.4zm-35.4 50.9l18.8 1.2-19.6 1.6.7-1.5c.1-.2.2-.5.1-.7v-.6zm13.4 5l-12.2 8.7-2.3-7.5 14.5-1.2zm6.6-.6l8.3-.7-24.6 12.2 16.3-11.5zm3.2-6.4l-21.8-1.3 26.6-37.1 2.2 3.9-1.2 3.3c-.2.7-.1 1.4.5 1.9.5.5 1.3.5 1.9.2l1.3-.8 9.3 16.7-18.8 13.2zm20.4-10.3l3.7 6.6-9.3 4.6-9.4-.6 15-10.6zm-8-21.4l38.1-22.4c-3.7 8.7-7.3 17.5-10.9 26.1L278 263l-9.1-16.4zm-1.7-3l-.1-.2 8-21.5 36.9-10.7.2.3c-1 2.5-2.1 4.9-3.1 7.4l-41.9 24.7zm27.9-51.1l14.4 16-32.6 9.4 18.2-25.4zm-14.4 14.4l8-21.5 4.1 4.6-12.1 16.9zm14.1-19.8l-5.5-6.1c-.4-.4-1-.6-1.6-.5-.6.1-1.1.5-1.3 1.1l-13.3 35.8-1.5 2.1-14.3 4.1-27.9-62.7c-.3-.6-.9-1-1.5-1h-.4c-.8.2-1.3.9-1.3 1.7l.1 1.7-30.2-13.2 107.1 5.7 2.9 15.4-11.3 15.9zM226.6 172l1.8 59.9-5 1.4-15.1-34.1 18.3-27.2zm-13.1 64.2l-1.1.3-8.6-30.5.4-.6 9.3 30.8zm1 3.3l2.5 8.4-1.3.3-2.3-8.3 1.1-.4zm3.5 11.6l7.6 25.4-2.1-.1-7-24.9 1.5-.4zm4.2 32.8l-27.8 2.3-8-1-21.2-5 1.7-4 54.1 3.3 1.2 4.4zm-43.9 3.7l-9.8.8-2.1-2.4 11.9 1.6zm13.2 2.3l18.9 4.5h7.7l-12.5 17.5-10.7 5.3-23.5-25.7 20.1-1.6zm4.2 33.3l-1.3 1.1-3.3-1.5 2.9-1.4 1.7 1.8zm-4 3.6l-4.5 4.1-7.4-2.4 7.4-3.7 4.5 2zm-.2 4.8l-.4.5h-.1l.5-.5zm-7.1 1.9l-34.1 30.9 2.3-22.4 22.9-11.4 8.9 2.9zm-32.2-22.2l-.8 8.1-2.3-.7 3.1-7.4zm-6.3 6.3l-13.8-4.4 6.7-10.1 11 4.9-3.9 9.6zm7 20.5l1.4-14.2 16.5 5.3-17.9 8.9zm1.2-45.3l-.7 6.9-2.2 5.2-10.4-4.7 4.6-6.8 8.7-.6zm-16.5 6.1l-4.6-2 .9-2.6 7.1-.5-3.4 5.1zm-6-7.8l-9.8.7-.9-.4-2-11.4 16 2.1-3.3 9zm-1.3 3.4l-.3.9-1.7-.8 2-.1zm17.6 27.3l3.2 1-1.7 17-3.1 1.5c-.3.2-.6.5-.8.8L129.7 377l-5.9 11.3-2.1 1.9-1.3-2.9 27.5-65.5zm-15.1 56.8l15.6-34.5.6-.3-2.4 24-15.5 14 1.7-3.2zm59.6-42.5l11.3 3.6-9.2 20.6-31 16.1 28.9-40.3zm14.5 4.7l6.8 2.2 4.6 5-19 9.9 7.6-17.1zm24.2-37.8l2.2-1.1 14.6 48.5-3.9-1.3-12.9-46.1zm47.9-23.8l3.3-1.6.7 1.3-4 .3zm.7-13.2l13.9-9.9c-2.1 5.1-4.3 10.2-6.4 15.2l-3.6 1.8-3.9-7.1zm12.2 3c2.3-5.4 4.6-11 6.9-16.6l30.7-21.8 12.2 13.6-49.8 24.8zm9.4-22.4c3.5-8.4 7.1-16.8 10.6-25.2l6-3.5 9.3 10.4-25.9 18.3zm14.9-35.7c.1-.3.3-.6.4-.9l15.4-4.4-13.5 7.9-2.3-2.6zm2.1-4.9c1.3-3.1 2.6-6.1 3.8-9.2l9.1 5.4-12.9 3.8zm2.2-14.1l-7.8-4.6-2.9-15.3 11-15.3 14.2.8c-4.5 10.7-9.4 22.3-14.5 34.4zm2.6-38.5l32.8-45.9c-4.2 10.1-11.2 26.6-19.5 46.6l-13.3-.7zm-4-.2l-13-.7-1.2-6.2c-.1-.5-.4-.9-.7-1.1l-32.3-20.9 85.3-24.4-38.1 53.3zm-17.3-5.5l.9 4.7-108.7-5.7 73.6-21 34.2 22zM226 166.8l-19.3 28.8-20.5-46h.3l39.5 17.2zm-23 34.4l-.3.5-1.5-5.3c-.1-.2-.1-.4-.2-.5l-.3-.5.4-.9 1.9 6.7zm-3.2-12.7c-.1.1-.1.2-.2.3l-1.4 3.3-32.5-46 .3-5.4 15.5 6.7 18.3 41.1zm-1.1 11.5l1.5 5.4-9.9 14.8 8.4-20.2zm2.7 9.7l7.8 27.8-29.7 8.6 4.1-9.7 17.8-26.7zm8.7 31l2.3 8.2-37.9 9 3.3-7.8 32.3-9.4zm3.2 11.5l6.7 23.9-51.7-3.2 4.7-11.2 40.3-9.5zm-42.8 6.6l-2.4.6 5.4-8.1h.1l-3.1 7.5zm-1.7 3.9l-4.2 10-5.2-.3 5.9-8.8 3.5-.9zm-7.2 26.2l.9-2.1 1.7 1.9-2.6.2zm21.6 34.1l-8 4-20.5-6.6 1-9.8 27.5 12.4zm-27.5-51.2l-.2.3h-.7l-8-4.1 9.2-2.2-.3 6zm-5.5 8.3l-.3.4-10.4-1.3.5-1.5 10.2 2.4zm-2.4 3.5l-4.4 6.5-8.2.6 3-8.4 9.6 1.3zm-11.7-4.9l-17.8-2.3-.6-3.3 6.1.4c.2.2.5.4.8.5l12 2.8-.5 1.9zm-19-9l-.4-2.1 3.8-1.1 1.6 3.5-5-.3zm0 20l-30-13.5.9-.2 27.4 3.5 1.7 10.2zm5.6 13.7c.1-.3.1-.6.1-.9l-1.2-7.2 7.3 3.3-21.3 58.7-2.4-5.5 17.5-48.4zm-14.9 63.1l9 20.9-5 12L88 421l19.8-54.5zm-5.6 55.9L88 456.5l-1.7-28 15.9-6.1zm12.5-21l4.8-4.3-9.8 18.9-1.2.5 6.2-15.1zm7.3-2l4.4 10.1-12 4.6 7.6-14.7zm23.9 10.5l2.5-5.7c.3-.6.1-1.4-.3-1.8-.4-.4-.9-.6-1.4-.5l.2-1.9 9.6-13.4 26 1.2-19.1 43-2.4 1-17-.8 1.9-21.1zm12.8-26.6l.5-.7 33.1-17.3-8.5 19.1-25.1-1.1zm38.4-20.5l23.5-12.3 6.9 7.5 13 17.1-14.5 11.3-38.6-1.8 9.7-21.8zm45.5 15.1l7.3 9.6-18.6-.9 11.3-8.7zm6.8-9.6l-4.3-15.3 4 1.3 1.4 4.6c-1.2 2.8-1.9 4.4-1.9 4.6-.3.8-.1 1.7.7 2.2 1 .6 1.6.3 3-1l.4 1.3-3.3 2.3zm4.2 1l5.6 18.6-4.4-.2-4.5-15.9 3.3-2.5zm15.7-12.1l46.5-35.8 16.6 15-48.1 25.6-15-4.8zm33.4-52.2c-.3-.3-.8-.5-1.2-.4-.5 0-.9.2-1.2.6-13.5 15.5-31.9 36.4-42.5 48.4l-1.2-.4c5.9-14.1 16.6-39.7 29.1-69.4l11.1 19.9c.3.5.7.8 1.3.9.5.1 1.1-.1 1.4-.5l17.5-18.6 32.4 2 .6 3.4-34 26.1-13.3-12zm45.4-45.7l30.8 11.6-28.5 2.4-2.3-14zm.7 24.7l-28.9-1.8 3.1-3.3 24.6-2 1.2 7.1zm-22.3-8.7l16.7-17.8 1.2.5 2.6 15.6-20.5 1.7zm17.8-33.2l-12-13.3 14.6-10.4-2.6 23.7zM330 226.2l-9.1-10.2 16.9-9.9 5.8 3.5c.4.2.9.3 1.3.2.5-.1.8-.4 1-.8l2.5-4.9-1.1 9.8-17.3 12.3zm13.8-20.5l-2.7-1.6 4.2-2.5c.7-.4 1-1.3.7-2.1-.3-.8-1.2-1.2-2-1l-8.3 2.4-12.3-7.3c5.3-12.7 10.4-24.9 15.1-36.1l14.9.8-4 36.3-5.6 11.1zm9-10l19.4-37.3c.3-.5.3-1.1 0-1.6s-.8-.8-1.4-.9l-13.5-.7 6.1-55.3 85 42.3-97.2 69 1.6-15.5zm13.6-98.1l209.9-46.1L451.5 140l-85.1-42.4zm203.9-48.3L361 95.4h-.1l-92.8 26.5-127.5-82.3 429.7 9.7zm-306.5 73.8l-78.2 22.3-1.4-.6-45.7-102.5 125.3 80.8zm-102.2 18.5c-.6.1-1.1.5-1.4 1v.1l-20-88.4 39.4 88.6-14.3-6.2c-.2-.1-.4-.1-.7-.1-.3 0-.6.1-.9.3-.5.3-.8.8-.8 1.3l-.2 3.8c-.4-.4-.7-.5-1.1-.4zm3.9 10l31.2 44.3-16.2 38.9-9.1 13.7-11.2 3.2 5.3-100.1zM160 255.2l8.5-2.4-5.2 7.8-3.6.9.3-6.3zm-.5 9.7l1-.2-1.1 1.6.1-1.4zm-1.4 11.8c.4-.2.7-.6.8-1l4.5.3-1.4 3.4-2.1-.5-1.3-1.4c-.3-.4-.8-.6-1.2-.6.1 0 .4-.1.7-.2zm-.9.2c-.2 0-.4 0-.5.1l-.6.3.4-.6c.2.2.5.2.7.2zm-.7-20.7l-.3 6-13.9 3.3-5.7-3.6 19.9-5.7zM139.9 268l-1.1 3.1-12.9-.8-2.2-4.7 8.4-2.4 7.8 4.8zm-11.5-7.2l-6 1.7-3.5-7.7 9.5 6zm-9.3 2.7l-2.9.8-2-11.5 4.9 10.7zm-4.9 9.5l.5 3-18.6-2.4 5-1.4 13.1.8zm-.7-4.4l.2.9-2.8-.2 2.6-.7zm-3.1-17.7l2.5 14.4-12.1 3.5-9.9-.6 19.5-17.3zm-19.3 20.6l-3.4 1-.5-.1.4-1.1 3.5.2zm.6-22.1L83.8 272l-8.3-1.1 16.2-21.5zm-20 24.4c.2.1.3.1.5.2l2.1.3 40.3 18.1-34.2 2.5-1.2-2.7-7.5-18.4zm4.5 158c2.6-2.8 2.6-3.2 2.6-3.7v-3.6l24.6-67.9 2.4 5.5-22.9 63.2c-.1.2-.1.4-.1.5l-1.1 1c-.6.5-.7 1.4-.3 2.1.4.6 1 .9 1.7.8l2 33.4c0 .2.1.4.2.6L60.9 474l15.3-42.2zm33.6 32.9l-14 267.2-71.4-250.3c3.1-2.9 14.9-14 26.6-25.2 9.2-8.8 15.4-14.8 19.6-18.9l-14.1 39c-.2.6-.1 1.3.4 1.8s1.2.6 1.8.3l33-14h18.1zm30.8-33.9l-3.7-.2 4.7-10.8-1 11zm2-21.8l-9.7 22.6c-.2.5-.2 1.1.1 1.6.3.5.8.8 1.4.8l6 .3-.6 6.5L91 461.4h-1l22.1-42.7 15.7-6 2.6 5.9c.2.6.8.9 1.4 1 .6.1 1.2-.2 1.6-.7l8.2-11.5 1.3-.5-.3 2.1zm1.1 25.4l9.9.4-10.4 4.4.5-4.8zm7 5.3l10.8-4.6 3.8.2-14.6 4.4zm15.7-7.7l19.6-44 35.9 1.7-55 42.4-.5-.1zm3.5 1.9l57.2-44.1 25.5 1.2c.5.4 1.2.5 1.9.2.1 0 .2-.1.2-.1l5.4.2v8c0 .8.5 1.4 1.3 1.6l9.3 2.4-100.8 30.6zm112.6-34.1l-5.6 1.7-13.5-3.4v-21l21.2-11.3 43.1 13.8-3 1.6-42.2 18.6zm26.9-8.2l16.8-7.4s.1 0 .1-.1l5.9-3.2 5.9 1.9-28.7 8.8zm35-10.3l-8-2.6L351 371l4.2 1.9-10.3 8.7c-.1-.1-.3-.2-.5-.3zm43.4 6.1l-40.3-3.6 11.2-9.4 29.1 13zm-29.7-16.9l-6.5-2.9c-.5-.2-1-.2-1.5.1l-18.2 9.7-43.1-13.8 47.3-25.2c.5-.3.8-.7.9-1.3.1-.5-.1-1.1-.5-1.5l-17.9-16.2 34.3-26.4c.5-.4.7-1 .6-1.6l-.5-2.9 45.9 47.6-40.8 34.4zm-4-85.7c-.3-.3-.7-.5-1.1-.5l-.7-.1-1.3-7.6 35.3-2.9 59.7 22.5-44.6 37.7-47.3-49.1zm94.9 8.9L394.2 273l87.8-7.3-33 28zm38.8-28.4l2.9-.2c.2 0 .4-.1.6-.2l1.2 45.1-39.8-15 35.1-29.7zm7.5 158.2l-20-13.2-71.4-74.1 45.8-38.7 42.8 16.1 2.8 109.9zm-4.4-165.3l-4.5 3.8-99.6 8.3-39.3-14.8-.8-4.5 3.9-35.2L451.8 144l72.8 36.3-33.7 77.9zm-36-116.5l124.4-88.3-53.4 123.7-71-35.4z" fill="#88edea" id="Layer_1"/><g id="Layer_2"><path class="st1" d="M69.8 277.1l6.7-11.6c2.2-3.9 1.6-8.7-1.5-12-3.9-4-10.4-4-14.3 0-3.1 3.2-3.7 8.1-1.5 12l6.7 11.6c.8 1.5 3 1.5 3.9 0zM180.9 249.4l6.7-11.6c2.2-3.9 1.6-8.7-1.5-12-3.9-4-10.4-4-14.3 0-3.1 3.2-3.7 8.1-1.5 12l6.7 11.6c.9 1.5 3.1 1.5 3.9 0zM96.4 246.1l6.7-11.6c2.2-3.9 1.6-8.7-1.5-12-3.9-4-10.4-4-14.3 0-3.1 3.2-3.7 8.1-1.5 12l6.7 11.6c.8 1.4 3 1.4 3.9 0z"/><path class="st2" d="M113.3 260.2l6.7-11.6c2.2-3.9 1.6-8.7-1.5-12-3.9-4-10.4-4-14.3 0-3.1 3.2-3.7 8.1-1.5 12l6.7 11.6c.9 1.4 3 1.4 3.9 0zM80 309.8l6.7-11.6c2.2-3.9 1.6-8.7-1.5-12-3.9-4-10.4-4-14.3 0-3.1 3.2-3.7 8.1-1.5 12l6.7 11.6c.9 1.5 3 1.5 3.9 0z"/><path class="st1" d="M126.8 279.9l6.7-11.6c2.2-3.9 1.6-8.7-1.5-12-3.9-4-10.4-4-14.3 0-3.1 3.2-3.7 8.1-1.5 12l6.7 11.6c.9 1.5 3 1.5 3.9 0z"/><path class="st3" d="M143.7 274.2l6.7-11.6c2.2-3.9 1.6-8.7-1.5-12-3.9-4-10.4-4-14.3 0-3.1 3.2-3.7 8.1-1.5 12l6.7 11.6c.9 1.5 3.1 1.5 3.9 0z"/><path class="st1" d="M158.9 291.2l6.7-11.6c2.2-3.9 1.6-8.7-1.5-12-3.9-4-10.4-4-14.3 0-3.1 3.2-3.7 8.1-1.5 12l6.7 11.6c.9 1.5 3.1 1.5 3.9 0z"/><path class="st3" d="M169.1 305.3l6.7-11.6c2.2-3.9 1.6-8.7-1.5-12-3.9-4-10.4-4-14.3 0-3.1 3.2-3.7 8.1-1.5 12l6.7 11.6c.9 1.5 3 1.5 3.9 0z"/><path class="st2" d="M126.8 318.8l6.7-11.6c2.2-3.9 1.6-8.7-1.5-12-3.9-4-10.4-4-14.3 0-3.1 3.2-3.7 8.1-1.5 12l6.7 11.6c.9 1.5 3 1.5 3.9 0z"/><path class="st1" d="M108.8 369.6l6.7-11.6c2.2-3.9 1.6-8.7-1.5-12-3.9-4-10.4-4-14.3 0-3.1 3.2-3.7 8.1-1.5 12l6.7 11.6c.8 1.4 3 1.4 3.9 0z"/><path class="st3" d="M148.8 361.1l6.7-11.6c2.2-3.9 1.6-8.7-1.5-12-3.9-4-10.4-4-14.3 0-3.1 3.2-3.7 8.1-1.5 12l6.7 11.6c.9 1.5 3 1.5 3.9 0z"/><path class="st1" d="M202.9 332.9l6.7-11.6c2.2-3.9 1.6-8.7-1.5-12-3.9-4-10.4-4-14.3 0-3.1 3.2-3.7 8.1-1.5 12l6.7 11.6c.9 1.5 3.1 1.5 3.9 0zM89 282.1l6.7-11.6c2.2-3.9 1.6-8.7-1.5-12-3.9-4-10.4-4-14.3 0-3.1 3.2-3.7 8.1-1.5 12l6.7 11.6c.9 1.5 3.1 1.5 3.9 0zM229.4 254.5l6.7-11.6c2.2-3.9 1.6-8.7-1.5-12-3.9-4-10.4-4-14.3 0-3.1 3.2-3.7 8.1-1.5 12l6.7 11.6c.9 1.5 3.1 1.5 3.9 0z"/><path class="st2" d="M265.5 252.3l6.7-11.6c2.2-3.9 1.6-8.7-1.5-12-3.9-4-10.4-4-14.3 0-3.1 3.2-3.7 8.1-1.5 12l6.7 11.6c.9 1.4 3.1 1.4 3.9 0z"/><path class="st1" d="M200.7 202.1l6.7-11.6c2.2-3.9 1.6-8.7-1.5-12-3.9-4-10.4-4-14.3 0-3.1 3.2-3.7 8.1-1.5 12l6.7 11.6c.9 1.5 3 1.5 3.9 0z"/><path class="st2" d="M229.4 181.2l6.7-11.6c2.2-3.9 1.6-8.7-1.5-12-3.9-4-10.4-4-14.3 0-3.1 3.2-3.7 8.1-1.5 12l6.7 11.6c.9 1.5 3.1 1.5 3.9 0z"/><path class="st1" d="M163.7 156.2l6.7-11.6c2.2-3.9 1.6-8.7-1.5-12-3.9-4-10.4-4-14.3 0-3.1 3.2-3.7 8.1-1.5 12l6.7 11.6c.9 1.5 3.1 1.5 3.9 0z"/><path class="st2" d="M181.2 164.7l6.7-11.6c2.2-3.9 1.6-8.7-1.5-12-3.9-4-10.4-4-14.3 0-3.1 3.2-3.7 8.1-1.5 12l6.7 11.6c.9 1.5 3.1 1.5 3.9 0z"/><path class="st1" d="M307 156.2l6.7-11.6c2.2-3.9 1.6-8.7-1.5-12-3.9-4-10.4-4-14.3 0-3.1 3.2-3.7 8.1-1.5 12l6.7 11.6c.9 1.5 3 1.5 3.9 0z"/><path class="st2" d="M362.8 101.5l6.7-11.6c2.2-3.9 1.6-8.7-1.5-12-3.9-4-10.4-4-14.3 0-3.1 3.2-3.7 8.1-1.5 12l6.7 11.6c.9 1.5 3.1 1.5 3.9 0z"/><path class="st1" d="M366.2 174.3l6.7-11.6c2.2-3.9 1.6-8.7-1.5-12-3.9-4-10.4-4-14.3 0-3.1 3.2-3.7 8.1-1.5 12l6.7 11.6c.9 1.5 3 1.5 3.9 0zM293.4 199.1l6.7-11.6c2.2-3.9 1.6-8.7-1.5-12-3.9-4-10.4-4-14.3 0-3.1 3.2-3.7 8.1-1.5 12l6.7 11.6c.9 1.5 3.1 1.5 3.9 0z"/><path class="st2" d="M313.2 202.5l6.7-11.6c2.2-3.9 1.6-8.7-1.5-12-3.9-4-10.4-4-14.3 0-3.1 3.2-3.7 8.1-1.5 12l6.7 11.6c.9 1.5 3 1.5 3.9 0z"/><path class="st1" d="M290.1 240.8l6.7-11.6c2.2-3.9 1.6-8.7-1.5-12-3.9-4-10.4-4-14.3 0-3.1 3.2-3.7 8.1-1.5 12l6.7 11.6c.9 1.5 3 1.5 3.9 0zM346.5 216.6l6.7-11.6c2.2-3.9 1.6-8.7-1.5-12-3.9-4-10.4-4-14.3 0-3.1 3.2-3.7 8.1-1.5 12l6.7 11.6c.8 1.5 3 1.5 3.9 0z"/><path class="st2" d="M343.1 260l6.7-11.6c2.2-3.9 1.6-8.7-1.5-12-3.9-4-10.4-4-14.3 0-3.1 3.2-3.7 8.1-1.5 12l6.7 11.6c.9 1.5 3 1.5 3.9 0z"/><path class="st3" d="M303.3 313l6.7-11.6c2.2-3.9 1.6-8.7-1.5-12-3.9-4-10.4-4-14.3 0-3.1 3.2-3.7 8.1-1.5 12l6.7 11.6c.9 1.5 3.1 1.5 3.9 0z"/><path class="st1" d="M352.9 298.9l6.7-11.6c2.2-3.9 1.6-8.7-1.5-12-3.9-4-10.4-4-14.3 0-3.1 3.2-3.7 8.1-1.5 12l6.7 11.6c.9 1.5 3.1 1.5 3.9 0zM230.6 361l6.7-11.6c2.2-3.9 1.6-8.7-1.5-12-3.9-4-10.4-4-14.3 0-3.1 3.2-3.7 8.1-1.5 12l6.7 11.6c.9 1.4 3 1.4 3.9 0z"/><path class="st2" d="M248.1 367.7l6.7-11.6c2.2-3.9 1.6-8.7-1.5-12-3.9-4-10.4-4-14.3 0-3.1 3.2-3.7 8.1-1.5 12l6.7 11.6c.8 1.5 3 1.5 3.9 0z"/><path class="st1" d="M243.5 332.8l6.7-11.6c2.2-3.9 1.6-8.7-1.5-12-3.9-4-10.4-4-14.3 0-3.1 3.2-3.7 8.1-1.5 12l6.7 11.6c.9 1.5 3.1 1.5 3.9 0z"/><path class="st3" d="M213.1 301.7l6.7-11.6c2.2-3.9 1.6-8.7-1.5-12-3.9-4-10.4-4-14.3 0-3.1 3.2-3.7 8.1-1.5 12l6.7 11.6c.9 1.5 3 1.5 3.9 0z"/><path class="st1" d="M233.4 304l6.7-11.6c2.2-3.9 1.6-8.7-1.5-12-3.9-4-10.4-4-14.3 0-3.1 3.2-3.7 8.1-1.5 12l6.7 11.6c.9 1.5 3 1.5 3.9 0z"/><path class="st2" d="M133 388.6l6.7-11.6c2.2-3.9 1.6-8.7-1.5-12-3.9-4-10.4-4-14.3 0-3.1 3.2-3.7 8.1-1.5 12l6.7 11.6c.9 1.5 3 1.5 3.9 0z"/><path class="st3" d="M146.5 402.7l6.7-11.6c2.2-3.9 1.6-8.7-1.5-12-3.9-4-10.4-4-14.3 0-3.1 3.2-3.7 8.1-1.5 12l6.7 11.6c.9 1.5 3.1 1.5 3.9 0z"/><path class="st1" d="M133.6 430.9l6.7-11.6c2.2-3.9 1.6-8.7-1.5-12-3.9-4-10.4-4-14.3 0-3.1 3.2-3.7 8.1-1.5 12l6.7 11.6c.9 1.5 3 1.5 3.9 0zM166.7 438.5l6.7-11.6c2.2-3.9 1.6-8.7-1.5-12-3.9-4-10.4-4-14.3 0-3.1 3.2-3.7 8.1-1.5 12l6.7 11.6c.9 1.5 3 1.5 3.9 0zM146.4 452.6l6.7-11.6c2.2-3.9 1.6-8.7-1.5-12-3.9-4-10.4-4-14.3 0-3.1 3.2-3.7 8.1-1.5 12l6.7 11.6c.9 1.5 3 1.5 3.9 0z"/><path class="st2" d="M133.4 463.9l6.7-11.6c2.2-3.9 1.6-8.7-1.5-12-3.9-4-10.4-4-14.3 0-3.1 3.2-3.7 8.1-1.5 12l6.7 11.6c.9 1.5 3.1 1.5 3.9 0z"/><path class="st3" d="M84.4 440.8l6.7-11.6c2.2-3.9 1.6-8.7-1.5-12-3.9-4-10.4-4-14.3 0-3.1 3.2-3.7 8.1-1.5 12l6.7 11.6c.9 1.4 3 1.4 3.9 0z"/><path class="st1" d="M108.6 482.5l6.7-11.6c2.2-3.9 1.6-8.7-1.5-12-3.9-4-10.4-4-14.3 0-3.1 3.2-3.7 8.1-1.5 12l6.7 11.6c.9 1.5 3.1 1.5 3.9 0z"/><path class="st3" d="M88.9 482.5l6.7-11.6c2.2-3.9 1.6-8.7-1.5-12-3.9-4-10.4-4-14.3 0-3.1 3.2-3.7 8.1-1.5 12l6.7 11.6c.9 1.5 3 1.5 3.9 0z"/><path class="st2" d="M60.1 493.8l6.7-11.6c2.2-3.9 1.6-8.7-1.5-12-3.9-4-10.4-4-14.3 0-3.1 3.2-3.7 8.1-1.5 12l6.7 11.6c.9 1.5 3.1 1.5 3.9 0z"/><path class="st1" d="M24.6 489.8l6.7-11.6c2.2-3.9 1.6-8.7-1.5-12-3.9-4-10.4-4-14.3 0-3.1 3.2-3.7 8.1-1.5 12l6.7 11.6c.9 1.5 3 1.5 3.9 0zM69.8 277.1l6.7-11.6c2.2-3.9 1.6-8.7-1.5-12-3.9-4-10.4-4-14.3 0-3.1 3.2-3.7 8.1-1.5 12l6.7 11.6c.8 1.5 3 1.5 3.9 0z"/><path class="st1" d="M69.8 277.1l6.7-11.6c2.2-3.9 1.6-8.7-1.5-12-3.9-4-10.4-4-14.3 0-3.1 3.2-3.7 8.1-1.5 12l6.7 11.6c.8 1.5 3 1.5 3.9 0zM263.7 402.3l6.7-11.6c2.2-3.9 1.6-8.7-1.5-12-3.9-4-10.4-4-14.3 0-3.1 3.2-3.7 8.1-1.5 12l6.7 11.6c.9 1.5 3 1.5 3.9 0z"/><path class="st2" d="M280.1 406.8l6.7-11.6c2.2-3.9 1.6-8.7-1.5-12-3.9-4-10.4-4-14.3 0-3.1 3.2-3.7 8.1-1.5 12l6.7 11.6c.8 1.5 3 1.5 3.9 0z"/><path class="st1" d="M327.4 383.7l6.7-11.6c2.2-3.9 1.6-8.7-1.5-12-3.9-4-10.4-4-14.3 0-3.1 3.2-3.7 8.1-1.5 12l6.7 11.6c.9 1.4 3.1 1.4 3.9 0z"/><path class="st3" d="M344.9 395.5l6.7-11.6c2.2-3.9 1.6-8.7-1.5-12-3.9-4-10.4-4-14.3 0-3.1 3.2-3.7 8.1-1.5 12l6.7 11.6c.9 1.5 3 1.5 3.9 0z"/><path class="st1" d="M352.8 376.9l6.7-11.6c2.2-3.9 1.6-8.7-1.5-12-3.9-4-10.4-4-14.3 0-3.1 3.2-3.7 8.1-1.5 12l6.7 11.6c.9 1.5 3 1.5 3.9 0z"/><path class="st2" d="M334.8 349.3l6.7-11.6c2.2-3.9 1.6-8.7-1.5-12-3.9-4-10.4-4-14.3 0-3.1 3.2-3.7 8.1-1.5 12l6.7 11.6c.8 1.4 3 1.4 3.9 0z"/><path class="st1" d="M399.6 395.5l6.7-11.6c2.2-3.9 1.6-8.7-1.5-12-3.9-4-10.4-4-14.3 0-3.1 3.2-3.7 8.1-1.5 12l6.7 11.6c.9 1.5 3.1 1.5 3.9 0z"/><path class="st3" d="M476.3 424.8l6.7-11.6c2.2-3.9 1.6-8.7-1.5-12-3.9-4-10.4-4-14.3 0-3.1 3.2-3.7 8.1-1.5 12l6.7 11.6c.9 1.5 3 1.5 3.9 0z"/><path class="st2" d="M480.8 460.9l6.7-11.6c2.2-3.9 1.6-8.7-1.5-12-3.9-4-10.4-4-14.3 0-3.1 3.2-3.7 8.1-1.5 12l6.7 11.6c.9 1.5 3.1 1.5 3.9 0z"/><path class="st3" d="M532.1 468.8l6.7-11.6c2.2-3.9 1.6-8.7-1.5-12-3.9-4-10.4-4-14.3 0-3.1 3.2-3.7 8.1-1.5 12l6.7 11.6c.9 1.5 3.1 1.5 3.9 0z"/><path class="st1" d="M500.6 499.3l6.7-11.6c2.2-3.9 1.6-8.7-1.5-12-3.9-4-10.4-4-14.3 0-3.1 3.2-3.7 8.1-1.5 12l6.7 11.6c.8 1.5 3 1.5 3.9 0zM471.9 709.6l6.7-11.6c2.2-3.9 1.6-8.7-1.5-12-3.9-4-10.4-4-14.3 0-3.1 3.2-3.7 8.1-1.5 12l6.7 11.6c.9 1.5 3.1 1.5 3.9 0z"/><path class="st3" d="M490.7 266.1l6.7-11.6c2.2-3.9 1.6-8.7-1.5-12-3.9-4-10.4-4-14.3 0-3.1 3.2-3.7 8.1-1.5 12l6.7 11.6c.9 1.5 3 1.5 3.9 0z"/><path class="st1" d="M581.5 57.8l6.7-11.6c2.2-3.9 1.6-8.7-1.5-12-3.9-4-10.4-4-14.3 0-3.1 3.2-3.7 8.1-1.5 12l6.7 11.6c.9 1.5 3 1.5 3.9 0z"/><path class="st3" d="M136.6 44.1l6.7-11.6c2.2-3.9 1.6-8.7-1.5-12-3.9-4-10.4-4-14.3 0-3.1 3.2-3.7 8.1-1.5 12l6.7 11.6c.9 1.5 3 1.5 3.9 0z"/></g></svg>